<svg xmlns="http://www.w3.org/2000/svg" width="1600" height="900" viewBox="0 0 1600 900">
<defs><pattern id="grid" width="48" height="48" patternUnits="userSpaceOnUse"><path d="M48 0H0V48" fill="none" stroke="#132238" stroke-width="1"/></pattern><linearGradient id="blue" x1="0" x2="1"><stop stop-color="#3f91ef"/><stop offset="1" stop-color="#6bb4ff"/></linearGradient></defs>
<rect width="1600" height="900" fill="#08101d"/><rect width="1600" height="900" fill="url(#grid)" opacity=".9"/>
<text x="56" y="58" fill="#91a4c2" font-family="Inter,Arial,sans-serif" font-size="22" font-weight="600">RXERO</text><text x="136" y="58" fill="#91a4c2" font-family="Inter,Arial,sans-serif" font-size="22">/</text><text x="162" y="58" fill="#91a4c2" font-family="Inter,Arial,sans-serif" font-size="22">BUDGET VS ACTUAL</text><text x="1544" y="58" text-anchor="end" fill="#ffb21a" font-family="Inter,Arial,sans-serif" font-size="18" font-weight="700">SAMPLE DATA</text>
<line x1="56" y1="80" x2="1544" y2="80" stroke="#29405f"/>
<rect x="56" y="105" width="344" height="128" rx="16" fill="#111c30" stroke="#29405f"/><text x="80" y="145" fill="#91a4c2" font-family="Inter,Arial,sans-serif" font-size="18" font-weight="600" text-anchor="start">MONTHLY BUDGET</text><text x="80" y="207" fill="#edf3ff" font-family="Inter,Arial,sans-serif" font-size="48" font-weight="700" text-anchor="start">₹8.2L</text><rect x="452" y="105" width="344" height="128" rx="16" fill="#111c30" stroke="#29405f"/><text x="476" y="145" fill="#91a4c2" font-family="Inter,Arial,sans-serif" font-size="18" font-weight="600" text-anchor="start">ACTUAL SPEND</text><text x="476" y="207" fill="#edf3ff" font-family="Inter,Arial,sans-serif" font-size="48" font-weight="700" text-anchor="start">₹7.6L</text><rect x="848" y="105" width="344" height="128" rx="16" fill="#111c30" stroke="#29405f"/><text x="872" y="145" fill="#91a4c2" font-family="Inter,Arial,sans-serif" font-size="18" font-weight="600" text-anchor="start">VARIANCE</text><text x="872" y="207" fill="#2bd7a3" font-family="Inter,Arial,sans-serif" font-size="48" font-weight="700" text-anchor="start">₹0.6L</text><rect x="56" y="255" width="1488" height="395" rx="16" fill="#111c30" stroke="#29405f"/><text x="84" y="292" fill="#edf3ff" font-family="Inter,Arial,sans-serif" font-size="25" font-weight="600" text-anchor="start">Budget vs actual by control area</text><text x="84" y="350" fill="#91a4c2" font-family="Inter,Arial,sans-serif" font-size="18" font-weight="600" text-anchor="start">AREA 01</text><rect x="260" y="333" width="500" height="16" rx="8" fill="#273a58" stroke="none"/><rect x="260" y="356" width="380" height="16" rx="8" fill="url(#blue)" stroke="none"/><rect x="260" y="333" width="380" height="16" rx="8" fill="#273a58" stroke="none"/><rect x="260" y="356" width="460" height="16" rx="8" fill="#ff6b73" stroke="none"/><text x="1450" y="369" fill="#ff6b73" font-family="Inter,Arial,sans-serif" font-size="18" font-weight="700" text-anchor="end">+7.4%</text><text x="84" y="406" fill="#91a4c2" font-family="Inter,Arial,sans-serif" font-size="18" font-weight="600" text-anchor="start">AREA 02</text><rect x="260" y="389" width="500" height="16" rx="8" fill="#273a58" stroke="none"/><rect x="260" y="412" width="340" height="16" rx="8" fill="url(#blue)" stroke="none"/><rect x="260" y="389" width="335" height="16" rx="8" fill="#273a58" stroke="none"/><rect x="260" y="412" width="335" height="16" rx="8" fill="#2bd7a3" stroke="none"/><text x="1450" y="425" fill="#2bd7a3" font-family="Inter,Arial,sans-serif" font-size="18" font-weight="700" text-anchor="end">-0.8%</text><text x="84" y="462" fill="#91a4c2" font-family="Inter,Arial,sans-serif" font-size="18" font-weight="600" text-anchor="start">AREA 03</text><rect x="260" y="445" width="500" height="16" rx="8" fill="#273a58" stroke="none"/><rect x="260" y="468" width="270" height="16" rx="8" fill="url(#blue)" stroke="none"/><rect x="260" y="445" width="240" height="16" rx="8" fill="#273a58" stroke="none"/><rect x="260" y="468" width="240" height="16" rx="8" fill="#2bd7a3" stroke="none"/><text x="1450" y="481" fill="#2bd7a3" font-family="Inter,Arial,sans-serif" font-size="18" font-weight="700" text-anchor="end">-6.7%</text><text x="84" y="518" fill="#91a4c2" font-family="Inter,Arial,sans-serif" font-size="18" font-weight="600" text-anchor="start">AREA 04</text><rect x="260" y="501" width="500" height="16" rx="8" fill="#273a58" stroke="none"/><rect x="260" y="524" width="305" height="16" rx="8" fill="url(#blue)" stroke="none"/><rect x="260" y="501" width="265" height="16" rx="8" fill="#273a58" stroke="none"/><rect x="260" y="524" width="265" height="16" rx="8" fill="#2bd7a3" stroke="none"/><text x="1450" y="537" fill="#2bd7a3" font-family="Inter,Arial,sans-serif" font-size="18" font-weight="700" text-anchor="end">-12.7%</text><text x="84" y="574" fill="#91a4c2" font-family="Inter,Arial,sans-serif" font-size="18" font-weight="600" text-anchor="start">AREA 05</text><rect x="260" y="557" width="500" height="16" rx="8" fill="#273a58" stroke="none"/><rect x="260" y="580" width="230" height="16" rx="8" fill="url(#blue)" stroke="none"/><rect x="260" y="557" width="230" height="16" rx="8" fill="#273a58" stroke="none"/><rect x="260" y="580" width="230" height="16" rx="8" fill="#2bd7a3" stroke="none"/><text x="1450" y="593" fill="#2bd7a3" font-family="Inter,Arial,sans-serif" font-size="18" font-weight="700" text-anchor="end">0.0%</text><text x="56" y="705" fill="#91a4c2" font-family="Inter,Arial,sans-serif" font-size="20" font-weight="400" text-anchor="start">RXERO · Budget Management & Variance Control</text></svg>